<svg width="24" height="24" viewBox="0 0 24 24" fill="none" xmlns="http://www.w3.org/2000/svg">
<path d="M15.3333 13.7C15.7754 13.7 16.1993 13.5209 16.5118 13.2021C16.8244 12.8833 17 12.4509 17 12C17 11.5491 16.8244 11.1167 16.5118 10.7979C16.1993 10.4791 15.7754 10.3 15.3333 10.3C14.8913 10.3 14.4674 10.4791 14.1548 10.7979C13.8423 11.1167 13.6667 11.5491 13.6667 12C13.6667 12.4509 13.8423 12.8833 14.1548 13.2021C14.4674 13.5209 14.8913 13.7 15.3333 13.7ZM12 17.1C12.442 17.1 12.866 16.9209 13.1785 16.6021C13.4911 16.2833 13.6667 15.8509 13.6667 15.4C13.6667 14.9491 13.4911 14.5167 13.1785 14.1979C12.866 13.8791 12.442 13.7 12 13.7C11.558 13.7 11.1341 13.8791 10.8215 14.1979C10.5089 14.5167 10.3333 14.9491 10.3333 15.4C10.3333 15.8509 10.5089 16.2833 10.8215 16.6021C11.1341 16.9209 11.558 17.1 12 17.1ZM8.66667 20.5C9.1087 20.5 9.53262 20.3209 9.84518 20.0021C10.1577 19.6833 10.3333 19.2509 10.3333 18.8C10.3333 18.3491 10.1577 17.9167 9.84518 17.5979C9.53262 17.2791 9.1087 17.1 8.66667 17.1C8.22464 17.1 7.80072 17.2791 7.48816 17.5979C7.1756 17.9167 7 18.3491 7 18.8C7 19.2509 7.1756 19.6833 7.48816 20.0021C7.80072 20.3209 8.22464 20.5 8.66667 20.5ZM12 10.3C12.442 10.3 12.866 10.1209 13.1785 9.80208C13.4911 9.48327 13.6667 9.05087 13.6667 8.6C13.6667 8.14913 13.4911 7.71673 13.1785 7.39792C12.866 7.07911 12.442 6.9 12 6.9C11.558 6.9 11.1341 7.07911 10.8215 7.39792C10.5089 7.71673 10.3333 8.14913 10.3333 8.6C10.3333 9.05087 10.5089 9.48327 10.8215 9.80208C11.1341 10.1209 11.558 10.3 12 10.3ZM8.66667 6.9C9.10869 6.9 9.53262 6.72089 9.84518 6.40208C10.1577 6.08327 10.3333 5.65087 10.3333 5.2C10.3333 4.74913 10.1577 4.31673 9.84518 3.99792C9.53262 3.67911 9.10869 3.5 8.66667 3.5C8.22464 3.5 7.80072 3.67911 7.48816 3.99792C7.1756 4.31673 7 4.74913 7 5.2C7 5.65087 7.1756 6.08327 7.48816 6.40208C7.80072 6.72089 8.22464 6.9 8.66667 6.9Z" fill="white"/>
</svg>
